<?xml version="1.0" encoding="utf-8"?>
<!-- Generator: Adobe Illustrator 21.0.0, SVG Export Plug-In . SVG Version: 6.00 Build 0)  -->
<svg version="1.1" id="Capa_1" xmlns="http://www.w3.org/2000/svg" xmlns:xlink="http://www.w3.org/1999/xlink" x="0px" y="0px"
	 viewBox="0 0 450 225" style="enable-background:new 0 0 450 225;" xml:space="preserve">
<style type="text/css">
	.st0{fill:#41AA54;stroke:#41AA54;}
	.st1{fill:#FFFFFF;stroke:#FFFFFF;}
	.st2{fill:#41AA54;stroke:#FFFFFF;}
</style>
<g id="Capa_x0020_1">
	<ellipse class="st0" cx="123.7" cy="90.3" rx="40.8" ry="41.1"/>
	<path class="st1" d="M131.3,127.3l-4.6-6c-3.7-0.2-7.4-0.4-11.3-0.3l3.3-16.9c6-14.6,19.2-3.2,18.3-28c-0.2-2.2-9.3-8.7-2.5-10.1
		l14.4-0.2l-10.8-4.1c-7.2-1.7-10.2,1.4-9.6,8.6c2.2,4.8,8.7,11.5,2.9,17.6c-1.9,1.2-4.4,0.2-5.5-1.8c-2.9-7.7-64.1,28.8-17.1,19.3
		c-0.3,6-0.9,11.8-2.1,17.1c2,0.1,3.7,0.4,5.2,0.7c0.1,1.9,0,4,0.1,5.7l1.7,0.3l0.7-5.5c1.1-0.1,1.4-0.3,2.5-0.3
		c2.5,0,6.7-0.1,9.2,0.2C127.7,125.4,129.2,126.1,131.3,127.3z"/>
	<path class="st2" d="M113.4,120.8l-3.3-0.2c0.6-4.5,1.2-10.8,1.4-16.1l3.6-0.3L113.4,120.8z"/>
</g>
</svg>
