<svg xmlns="http://www.w3.org/2000/svg" xmlns:xlink="http://www.w3.org/1999/xlink" viewBox="0 0 302.87 235.35"><defs><style>.cls-1{fill:url(#Degradado_sin_nombre_28);}.cls-2{fill:url(#Degradado_sin_nombre_28-2);}.cls-3{fill:url(#Degradado_sin_nombre_2);}.cls-4{fill:url(#Degradado_sin_nombre_22);}.cls-5,.cls-6{fill:#fff;}.cls-5{stroke:#fff;}.cls-7{fill:url(#Degradado_sin_nombre_28-3);}.cls-8{fill:#0f2433;}</style><linearGradient id="Degradado_sin_nombre_28" x1="43.91" y1="115.72" x2="43.91" y2="233.05" gradientUnits="userSpaceOnUse"><stop offset="0" stop-color="#5ece58"/><stop offset="0.08" stop-color="#4ebc52"/><stop offset="0.24" stop-color="#329d47"/><stop offset="0.4" stop-color="#1c853e"/><stop offset="0.58" stop-color="#0c7338"/><stop offset="0.77" stop-color="#036934"/><stop offset="1" stop-color="#063"/></linearGradient><linearGradient id="Degradado_sin_nombre_28-2" x1="258.96" y1="115.72" x2="258.96" y2="233.05" xlink:href="#Degradado_sin_nombre_28"/><linearGradient id="Degradado_sin_nombre_2" x1="136.92" y1="281.47" x2="136.92" y2="145.78" gradientTransform="matrix(1.07, 0, 0, -1.07, 9.32, 295.41)" gradientUnits="userSpaceOnUse"><stop offset="0" stop-color="#ffcf95"/><stop offset="0.43" stop-color="#ffc954"/><stop offset="1" stop-color="#ffc200"/></linearGradient><linearGradient id="Degradado_sin_nombre_22" x1="155.36" x2="155.36" y2="102.58" gradientUnits="userSpaceOnUse"><stop offset="0" stop-color="#1d71b8"/><stop offset="0.1" stop-color="#1d5f97"/><stop offset="0.22" stop-color="#1d4b71"/><stop offset="0.36" stop-color="#1d3a52"/><stop offset="0.5" stop-color="#1d2d3a"/><stop offset="0.65" stop-color="#1d2428"/><stop offset="0.81" stop-color="#1d1f1e"/><stop offset="1" stop-color="#1d1d1b"/></linearGradient><linearGradient id="Degradado_sin_nombre_28-3" x1="155.36" y1="115.72" x2="155.36" y2="235.35" xlink:href="#Degradado_sin_nombre_28"/></defs><title>error404chiapas</title><g id="Capa_2" data-name="Capa 2"><g id="Capa_1-2" data-name="Capa 1"><path class="cls-1" d="M0,205.9V184.11l51-68.38H72.24v70.56H87.83V205.9H72.24V233H49.61V205.9Zm49.11-60.34L18.77,186.28H49.61V145.56Z"/><path class="cls-2" d="M215,205.9V184.11l51-68.38h21.29v70.56h15.59V205.9H287.29V233H264.66V205.9Zm49.11-60.34-30.34,40.73h30.84V145.56Z"/><path id="SVGCleanerId_0" data-name="SVGCleanerId 0" class="cls-3" d="M212,86.22,164.75,5.39a10.87,10.87,0,0,0-18.77,0L98.75,86.22a10.87,10.87,0,0,0,9.39,16.35h94.45A10.87,10.87,0,0,0,212,86.22Z"/><path id="SVGCleanerId_0-2" data-name="SVGCleanerId 0" class="cls-4" d="M212,86.22,164.75,5.39a10.87,10.87,0,0,0-18.77,0L98.75,86.22a10.87,10.87,0,0,0,9.39,16.35h94.45A10.87,10.87,0,0,0,212,86.22Z"/><path class="cls-5" d="M207,89.15,159.73,8.32a5.06,5.06,0,0,0-8.74,0L103.77,89.15a5.06,5.06,0,0,0,4.37,7.61h94.45A5.06,5.06,0,0,0,207,89.15ZM198.81,91H111.92a1.42,1.42,0,0,1-1.22-2.13l43.45-74.37a1.42,1.42,0,0,1,2.45,0L200,88.82A1.42,1.42,0,0,1,198.81,91Z"/><path class="cls-6" d="M151.51,77.53a3.13,3.13,0,0,1,1.18-2.46,4.26,4.26,0,0,1,2.87-1,3.64,3.64,0,0,1,2.57,1,3.3,3.3,0,0,1,0,4.89,3.58,3.58,0,0,1-2.57,1,4.19,4.19,0,0,1-2.87-1A3.16,3.16,0,0,1,151.51,77.53Zm.38-40.46a2.75,2.75,0,0,1,1-2.28,4,4,0,0,1,2.6-.8,3,3,0,0,1,2.34.84,3.24,3.24,0,0,1,.75,2.25q0,4.62-.16,15.09t-.16,15.09a1.69,1.69,0,0,1-.9,1.51,3.58,3.58,0,0,1-1.88.55q-2.85,0-2.85-2.05,0-4.62-.38-15.09T151.89,37.07Z"/><ellipse class="cls-7" cx="155.36" cy="175.54" rx="46.07" ry="59.81"/><path class="cls-8" d="M167.56,140.17l16.26-.29-12.19-6c-8.13-2.47-11.52,2-10.84,12.52,2.48,7,9.82,16.74,3.27,25.61-2.15,1.75-5,.29-6.21-2.62-3.27-11.21-72.38,41.91-19.31,28.09a188,188,0,0,1-2.37,24.89,30.83,30.83,0,0,1,5.87,1c.11,2.77,0,5.82.11,8.3l1.92.44.79-8a18.93,18.93,0,0,1,2.82-.44,82.57,82.57,0,0,1,10.39.29c1.81,2.62,3.5,3.64,5.87,5.38l-5.19-8.73a122.43,122.43,0,0,0-12.76-.44l3.73-24.6c6.77-21.25,21.68-4.66,20.66-40.75C170.15,151.67,159.88,142.21,167.56,140.17Zm-23.82,79.75-3.73-.29c.68-6.55,1.35-15.72,1.58-23.43l4.06-.44Z"/></g></g></svg>